# xmcd
#
# Track frame offsets:
#       150
#       14168
#       26328
#       36435
#       49275
#       63623
#       75796
#       86494
#       96901
#       108169
#       120824
#       132874
#       143789
#
# Disc length: 2089 seconds
#
# Revision: 2
# Processed by: cddbd v1.4PL0 Copyright (c) Steve Scherf et al.
# Submitted via: CD-DA_X-Tractor v0.21
#
DISCID=a208270d
DTITLE=Jimmy Reed - Bright Lights, Big City
DYEAR=1900
DGENRE=
TTITLE0=You Don't Have To Go
TTITLE1=I Don't Go For That
TTITLE2=Ain't That Lovin' You Baby
TTITLE3=You've Got Me Dizzy
TTITLE4=Little Rain
TTITLE5=Honest I Do
TTITLE6=Baby What You Want Me To Do
TTITLE7=Found Love
TTITLE8=Hush Hush
TTITLE9=Big Boss Man
TTITLE10=Bright Lights, Big City
TTITLE11=Good Lover, 1 and 2
TTITLE12=Shame, Shame, Shame
EXTD=
EXTT0=
EXTT1=
EXTT2=
EXTT3=
EXTT4=
EXTT5=
EXTT6=
EXTT7=
EXTT8=
EXTT9=
EXTT10=
EXTT11=
EXTT12=
PLAYORDER=
